External Loads File
version=1
nRows=33
nColumns=25
Range=5.000000e-03-10 seconds
endheader
time 	forceCrankRightX 	forceCrankRightY 	forceCrankRightZ 	pointCrankRightX 	pointCrankRightY 	pointCrankRightZ 	forceCrankLeftX 	forceCrankLeftY 	forceCrankLeftZ 	pointCrankLeftX 	pointCrankLeftY 	pointCrankLeftZ 	forceHandlebarRightX 	forceHandlebarRightY 	forceHandlebarRightZ 	pointHandlebarRightX 	pointHandlebarRightY 	pointHandlebarRightZ 	forceHandlebarLeftX 	forceHandlebarLeftY 	forceHandlebarLeftZ 	pointHandlebarLeftX 	pointHandlebarLeftY 	pointHandlebarLeftZ 		
0.005000 89.751506 63.800576 -0.000000 0.386039 0.221466 -0.121807 -29.877829 148.266592 -0.000000 0.636381 0.436892 -0.376502 -173.030882 0.000000 0.000000 1.026613 1.041883 -0.139212 221.258139 0.000000 0.000000 0.992870 0.981164 -0.443597
0.010000 93.933580 65.194080 -0.000000 0.382181 0.227030 -0.122015 -26.334102 152.217096 -0.000000 0.638871 0.431714 -0.376851 -189.509144 0.000000 0.000000 1.025649 1.040769 -0.140555 213.442122 0.000000 0.000000 0.993344 0.980333 -0.445666
0.015000 97.981145 66.326886 -0.000000 0.379033 0.231853 -0.121749 -23.082645 156.420529 -0.000000 0.641086 0.426362 -0.377255 -206.685876 0.000000 0.000000 1.024932 1.039902 -0.141805 205.174002 0.000000 0.000000 0.993534 0.979390 -0.447195
0.020000 102.186010 66.251276 -0.000000 0.374999 0.237450 -0.121613 -18.938908 161.206088 -0.000000 0.643347 0.420745 -0.378093 -224.666934 0.000000 0.000000 1.024983 1.040666 -0.143153 196.944996 0.000000 0.000000 0.992776 0.978653 -0.448227
0.025000 106.056689 65.311008 -0.000000 0.371959 0.244058 -0.121870 -14.606949 166.511168 -0.000000 0.645392 0.415542 -0.378464 -243.000504 0.000000 0.000000 1.024230 1.039557 -0.144429 188.724991 0.000000 0.000000 0.994177 0.978387 -0.449960
0.030000 109.206776 63.941665 -0.000000 0.368912 0.248772 -0.121965 -10.739843 172.278853 -0.000000 0.646902 0.409772 -0.378311 -261.812908 0.000000 0.000000 1.024164 1.040356 -0.145593 181.032338 0.000000 0.000000 0.994130 0.978226 -0.450711
0.035000 111.984893 61.517178 -0.000000 0.365774 0.254722 -0.121483 -6.182616 178.556501 -0.000000 0.648167 0.404115 -0.378701 -280.382307 0.000000 0.000000 1.023411 1.039307 -0.146658 173.283061 0.000000 0.000000 0.995225 0.977729 -0.452080
0.040000 114.088699 58.606708 -0.000000 0.363208 0.260939 -0.121781 -1.529384 185.237903 -0.000000 0.649009 0.398438 -0.378980 -298.515391 0.000000 0.000000 1.023518 1.040103 -0.147592 165.290008 0.000000 0.000000 0.995525 0.977688 -0.452674
0.045000 115.295290 55.815433 -0.000000 0.360760 0.265529 -0.121627 2.644849 192.230826 -0.000000 0.649975 0.392402 -0.378984 -315.819073 0.000000 0.000000 1.023259 1.039187 -0.148292 157.191695 0.000000 0.000000 0.997288 0.977330 -0.453793
0.050000 115.889555 52.793654 -0.000000 0.358573 0.271034 -0.121512 7.362986 199.380833 -0.000000 0.650805 0.386468 -0.378944 -331.856345 0.000000 0.000000 1.022639 1.039053 -0.149307 149.120509 0.000000 0.000000 0.997633 0.977280 -0.454948
0.055000 115.799287 49.938454 -0.000000 0.356666 0.276862 -0.121449 12.332540 206.511444 -0.000000 0.651339 0.380526 -0.378795 -345.530964 0.000000 0.000000 1.022968 1.039064 -0.149843 140.785151 0.000000 0.000000 0.999375 0.977702 -0.455986
0.060000 115.137740 47.342872 -0.000000 0.354869 0.282889 -0.121331 17.510512 213.527901 -0.000000 0.651828 0.374473 -0.378634 -356.798074 0.000000 0.000000 1.022682 1.038015 -0.150611 133.988700 0.000000 0.000000 1.001623 0.977626 -0.456979
0.065000 114.347018 44.380836 -0.000000 0.353372 0.290862 -0.121268 23.855817 220.400376 -0.000000 0.652212 0.368206 -0.378352 -365.175228 0.000000 0.000000 1.022683 1.037789 -0.151035 128.129321 0.000000 0.000000 1.002775 0.977781 -0.457702
0.070000 112.866559 43.084653 -0.000000 0.352261 0.295077 -0.121145 26.768751 227.943040 -0.000000 0.652411 0.362115 -0.378163 -369.968436 0.000000 0.000000 1.023175 1.037194 -0.151146 122.984319 0.000000 0.000000 1.004223 0.977331 -0.458208
0.075000 112.093670 40.363307 -0.000000 0.351361 0.302941 -0.121210 31.470045 236.144803 -0.000000 0.652798 0.355798 -0.377776 -371.777873 0.000000 0.000000 1.023462 1.036312 -0.151313 118.560320 0.000000 0.000000 1.006128 0.977301 -0.458809
0.080000 111.254392 38.583400 -0.000000 0.350646 0.307470 -0.121172 32.406439 246.397303 -0.000000 0.652884 0.349301 -0.377475 -372.487553 0.000000 0.000000 1.024358 1.035705 -0.151727 113.671816 0.000000 0.000000 1.009287 0.977753 -0.459604
0.085000 111.081232 35.689208 -0.000000 0.350144 0.314492 -0.121155 33.769668 258.815360 -0.000000 0.652763 0.342926 -0.377257 -373.692867 0.000000 0.000000 1.025032 1.034701 -0.151662 108.600400 0.000000 0.000000 1.011705 0.977882 -0.459843
0.090000 110.975275 33.250516 -0.000000 0.349901 0.319850 -0.121031 32.420673 274.155921 -0.000000 0.652524 0.336628 -0.376912 -376.269122 0.000000 0.000000 1.026667 1.033070 -0.150746 102.444699 0.000000 0.000000 1.012053 0.976838 -0.460204
0.095000 111.138657 30.337820 -0.000000 0.349876 0.326280 -0.121032 31.525895 291.831936 -0.000000 0.651869 0.330092 -0.376969 -382.183278 0.000000 0.000000 1.027875 1.031942 -0.150096 94.078422 0.000000 0.000000 1.014330 0.976829 -0.460191
0.100000 111.274074 27.653151 -0.000000 0.350087 0.332582 -0.120999 30.729830 311.224622 -0.000000 0.651338 0.323386 -0.376873 -392.571584 0.000000 0.000000 1.029658 1.031562 -0.149879 84.907692 0.000000 0.000000 1.017312 0.977004 -0.459996
0.105000 111.238326 25.628752 -0.000000 0.350566 0.338865 -0.120964 30.205267 331.489082 -0.000000 0.650554 0.317009 -0.376809 -407.042428 0.000000 0.000000 1.031283 1.029974 -0.148879 73.736285 0.000000 0.000000 1.018516 0.976429 -0.459907
0.110000 111.044661 24.313980 -0.000000 0.351133 0.345243 -0.120589 30.999974 351.851792 -0.000000 0.649460 0.310476 -0.376322 -424.223541 0.000000 0.000000 1.032978 1.029303 -0.148096 62.063010 0.000000 0.000000 1.020379 0.976387 -0.459234
0.115000 110.772090 23.683712 -0.000000 0.352320 0.352344 -0.121125 34.153521 371.759697 -0.000000 0.648180 0.303926 -0.376232 -441.005148 0.000000 0.000000 1.034793 1.028609 -0.147181 50.087795 0.000000 0.000000 1.022024 0.975784 -0.458403
0.120000 110.306804 24.766203 -0.000000 0.353379 0.357470 -0.121072 36.443975 391.157779 -0.000000 0.646844 0.297387 -0.376058 -454.786958 0.000000 0.000000 1.037259 1.028655 -0.146536 39.313655 0.000000 0.000000 1.025043 0.976256 -0.457891
0.125000 110.049914 26.107082 -0.000000 0.354751 0.363786 -0.120733 42.196829 409.274330 -0.000000 0.645121 0.290882 -0.376064 -463.375887 0.000000 0.000000 1.038892 1.027915 -0.145321 29.618041 0.000000 0.000000 1.026209 0.976278 -0.456984
0.130000 110.062255 27.448116 -0.000000 0.356424 0.370687 -0.121031 51.092326 425.620841 -0.000000 0.643273 0.284312 -0.376222 -465.425090 0.000000 0.000000 1.039873 1.025015 -0.143982 22.158903 0.000000 0.000000 1.025391 0.974594 -0.457405
0.135000 110.100496 29.253300 -0.000000 0.358341 0.375777 -0.120870 59.673686 440.054140 -0.000000 0.641249 0.277932 -0.376019 -459.915515 0.000000 0.000000 1.041952 1.025484 -0.142791 15.876734 0.000000 0.000000 1.026826 0.975130 -0.456340
0.140000 110.361689 30.150357 -0.000000 0.360504 0.382209 -0.120939 72.255894 451.481011 -0.000000 0.638983 0.271818 -0.376006 -447.134352 0.000000 0.000000 1.043345 1.025207 -0.141501 11.643522 0.000000 0.000000 1.027637 0.975728 -0.455045
0.145000 110.630619 30.565184 -0.000000 0.362933 0.387701 -0.121079 86.749385 459.696391 -0.000000 0.636282 0.265287 -0.376229 -427.565739 0.000000 0.000000 1.045817 1.026068 -0.140393 10.303642 0.000000 0.000000 1.029023 0.976479 -0.454094
0.150000 110.862058 30.425238 -0.000000 0.365605 0.393428 -0.121374 103.110007 464.482482 -0.000000 0.633873 0.259049 -0.376180 -401.325100 0.000000 0.000000 1.047583 1.026414 -0.139043 11.081593 0.000000 0.000000 1.030200 0.977552 -0.452979
0.155000 110.964887 29.798225 -0.000000 0.368412 0.399048 -0.121642 120.448003 466.197502 -0.000000 0.631445 0.253070 -0.375528 -369.522343 0.000000 0.000000 1.047403 1.024278 -0.137417 14.531517 0.000000 0.000000 1.029981 0.978519 -0.451142
0.160000 110.980132 28.102891 -0.000000 0.371606 0.405697 -0.121859 140.448154 464.958751 -0.000000 0.628438 0.247048 -0.375676 -331.725962 0.000000 0.000000 1.049443 1.025037 -0.136264 18.785379 0.000000 0.000000 1.030840 0.979417 -0.449956
0.165000 110.641667 25.937848 -0.000000 0.374889 0.412163 -0.122040 160.037281 462.555986 -0.000000 0.625235 0.240863 -0.375983 -290.801625 0.000000 0.000000 1.049653 1.023148 -0.134501 25.997588 0.000000 0.000000 1.029711 0.979601 -0.448228
